<svg width="159" height="106" viewBox="0 0 159 106" fill="none" xmlns="http://www.w3.org/2000/svg">
<rect width="159" height="106" fill="#FF8D23"/>
<path fill-rule="evenodd" clip-rule="evenodd" d="M20 6C18.3431 6 17 7.34315 17 9V83C17 84.6569 18.3431 86 20 86H139C140.657 86 142 84.6569 142 83V9C142 7.34315 140.657 6 139 6H20ZM23 10C21.8954 10 21 10.8954 21 12V80C21 81.1046 21.8954 82 23 82H136C137.105 82 138 81.1046 138 80V12C138 10.8954 137.105 10 136 10H23Z" fill="#4F4F4F"/>
<rect x="21" y="10" width="117" height="72" rx="2" fill="#303030"/>
<rect x="77" y="86" width="4" height="11" fill="#4F4F4F"/>
<rect x="64" y="99" width="2" height="29" rx="0.999999" transform="rotate(-90 64 99)" fill="#4F4F4F"/>
<rect x="28" y="25" width="31" height="3" rx="1.5" fill="#FA4343"/>
<rect x="44" y="60" width="46" height="3" rx="1.5" fill="#FA4343"/>
<rect x="28" y="46" width="36" height="3" rx="1.5" fill="#676767"/>
<rect x="59" y="39" width="36" height="3" rx="1.5" fill="#E8FF5C"/>
<rect x="28" y="67" width="36" height="3" rx="1.5" fill="#E8FF5C"/>
<rect x="67" y="25" width="36" height="3" rx="1.5" fill="#9A0000"/>
<rect x="28" y="53" width="36" height="3" rx="1.5" fill="#9A0000"/>
<rect x="31" y="39" width="22" height="3" rx="1.5" fill="#48FFF4"/>
<rect x="71" y="67" width="22" height="3" rx="1.5" fill="#48FFF4"/>
<rect x="72" y="46" width="42" height="3" rx="1.5" fill="#48FFF4"/>
<rect x="36" y="32" width="31" height="3" rx="1.5" fill="#D543FA"/>
<rect x="81" y="33" width="40" height="3" rx="1.5" fill="#D543FA"/>
</svg>
